<?xml version="1.0" encoding="UTF-8" standalone="no"?>
<!-- Created with Inkscape (http://www.inkscape.org/) -->

<svg
   width="512"
   height="512"
   viewBox="0 0 135.46666 135.46667"
   version="1.1"
   id="svg1"
   inkscape:version="1.3.2 (091e20ef0f, 2023-11-25)"
   sodipodi:docname="favicon.svg"
   xmlns:inkscape="http://www.inkscape.org/namespaces/inkscape"
   xmlns:sodipodi="http://sodipodi.sourceforge.net/DTD/sodipodi-0.dtd"
   xmlns="http://www.w3.org/2000/svg"
   xmlns:svg="http://www.w3.org/2000/svg">
  <sodipodi:namedview
     id="namedview1"
     pagecolor="#ffffff"
     bordercolor="#000000"
     borderopacity="0.25"
     inkscape:showpageshadow="2"
     inkscape:pageopacity="0.0"
     inkscape:pagecheckerboard="0"
     inkscape:deskcolor="#d1d1d1"
     inkscape:document-units="mm"
     inkscape:zoom="0.55587984"
     inkscape:cx="303.12306"
     inkscape:cy="492.0128"
     inkscape:window-width="2560"
     inkscape:window-height="1011"
     inkscape:window-x="0"
     inkscape:window-y="0"
     inkscape:window-maximized="1"
     inkscape:current-layer="layer1" />
  <defs
     id="defs1">
    <filter
       inkscape:collect="always"
       style="color-interpolation-filters:sRGB"
       id="filter7"
       x="-0.087092141"
       y="-0.05392913"
       width="1.1741843"
       height="1.105389">
      <feGaussianBlur
         inkscape:collect="always"
         stdDeviation="0.64157206"
         id="feGaussianBlur7" />
    </filter>
  </defs>
  <g
     inkscape:label="Camada 1"
     inkscape:groupmode="layer"
     id="layer1">
    <rect
       style="display:inline;opacity:0.460944;fill:#0066dc;fill-opacity:1;stroke-width:0.271189"
       id="rect1"
       width="93.578796"
       height="123.98998"
       x="20.943935"
       y="5.7383418"
       ry="15.196115" />
    <g
       id="g5"
       transform="translate(-1.1081179,7.9399318)">
      <rect
         style="opacity:1;fill:#ffffff;fill-opacity:1;stroke-width:0.264583"
         id="rect4"
         width="56.113728"
         height="10.562085"
         x="45.681053"
         y="27.005449"
         ry="5.2810426"
         inkscape:label="linha" />
      <rect
         style="opacity:1;fill:#ffffff;fill-opacity:1;stroke-width:0.264583"
         id="rect5"
         width="56.113728"
         height="10.562085"
         x="45.681053"
         y="56.444477"
         ry="5.2810426"
         inkscape:label="linha" />
      <rect
         style="opacity:1;fill:#ffffff;fill-opacity:1;stroke-width:0.264583"
         id="rect6"
         width="56.113728"
         height="10.562085"
         x="45.681053"
         y="85.883507"
         ry="5.2810426"
         inkscape:label="linha" />
    </g>
    <g
       id="g7"
       transform="matrix(1.669655,0,0,1.8531497,-45.943588,-30.688438)">
      <path
         id="rect2"
         style="opacity:0.241306;mix-blend-mode:normal;fill:#5a5a5a;fill-opacity:1;stroke:#29b676;stroke-width:0.418978;stroke-opacity:1;filter:url(#filter7)"
         d="m 79.547061,-40.576937 c -0.07186,0.07186 -0.116062,0.171147 -0.116062,0.281269 l -3.25e-4,25.645401 -11.339291,-0.0084 c -0.113665,-8.1e-5 -0.205321,0.09148 -0.205374,0.205141 l -0.0033,7.5356908 c -5.3e-5,0.1136656 0.0911,0.2050481 0.204768,0.2051295 l 17.129506,0.012271 c 0.0116,8.3e-6 0.02148,-0.00509 0.03254,-0.00692 l 2.320639,4.361e-4 c 0.220244,0 0.397734,-0.1776949 0.397734,-0.3979388 l -3.52e-4,-33.1907786 c 0,-0.220244 -0.17737,-0.397537 -0.397614,-0.397537 l -7.741515,-4e-6 c -0.110122,0 -0.209519,0.04439 -0.281376,0.116246 z"
         transform="matrix(0.57200131,0.8202527,-0.82039494,0.57179729,-14.37352,-19.016728)"
         inkscape:label="rect2" />
      <path
         id="path7"
         style="opacity:1;fill:#33d17a;stroke:#29b676;stroke-width:0.418978;stroke-opacity:1"
         d="m 79.547061,-40.576937 c -0.07186,0.07186 -0.116062,0.171147 -0.116062,0.281269 l -3.25e-4,25.645401 -11.339291,-0.0084 c -0.113665,-8.1e-5 -0.205321,0.09148 -0.205374,0.205141 l -0.0033,7.5356908 c -5.3e-5,0.1136656 0.0911,0.2050481 0.204768,0.2051295 l 17.129506,0.012271 c 0.0116,8.3e-6 0.02148,-0.00509 0.03254,-0.00692 l 2.320639,4.361e-4 c 0.220244,0 0.397734,-0.1776949 0.397734,-0.3979388 l -3.52e-4,-33.1907786 c 0,-0.220244 -0.17737,-0.397537 -0.397614,-0.397537 l -7.741515,-4e-6 c -0.110122,0 -0.209519,0.04439 -0.281376,0.116246 z"
         transform="matrix(0.57200131,0.8202527,-0.82039494,0.57179729,-15.373336,-20.016728)" />
    </g>
  </g>
</svg>
